<svg xmlns="http://www.w3.org/2000/svg" viewBox="0 0 24 24" fill="none">
  <path
    d="M12 3.5a8.5 8.5 0 0 0-2.7 16.56c.43.08.59-.18.59-.41v-1.44c-2.4.52-2.9-1.02-2.9-1.02-.39-.97-.95-1.22-.95-1.22-.78-.53.06-.52.06-.52.86.06 1.31.88 1.31.88.76 1.31 2 0.93 2.48.71.08-.55.3-.93.54-1.14-1.92-.22-3.95-.96-3.95-4.28 0-.95.34-1.72.88-2.33-.09-.22-.38-1.11.08-2.31 0 0 .72-.23 2.36.89a8.22 8.22 0 0 1 4.3 0c1.64-1.12 2.36-.89 2.36-.89.46 1.2.17 2.09.08 2.31.55.61.88 1.38.88 2.33 0 3.33-2.03 4.05-3.97 4.27.31.27.59.79.59 1.6v2.37c0 .23.16.5.6.41A8.5 8.5 0 0 0 12 3.5Z"
    fill="#f6f7fb"
  />
</svg>
